<mxfile host="app.diagrams.net" modified="2025-01-11T12:00:00.000Z" agent="5.0" version="24.2.5" etag="security-layers-123" type="device">
  <diagram name="Security Hardening Layers" id="security-layers">
    <mxGraphModel dx="1422" dy="794" grid="1" gridSize="10" guides="1" tooltips="1" connect="1" arrows="1" fold="1" page="1" pageScale="1" pageWidth="1169" pageHeight="827" math="0" shadow="0">
      <root>
        <mxCell id="0"/>
        <mxCell id="1" parent="0"/>
        
        <!-- Title -->
        <mxCell id="title" value="Security Hardening Layers - Defense in Depth" style="text;html=1;strokeColor=none;fillColor=none;align=center;verticalAlign=middle;whiteSpace=wrap;rounded=0;fontSize=24;fontStyle=1;" vertex="1" parent="1">
          <mxGeometry x="234" y="20" width="701" height="40" as="geometry"/>
        </mxCell>
        
        <!-- Layer 1: Network Security -->
        <mxCell id="layer1" value="Layer 1: Network Security" style="rounded=1;whiteSpace=wrap;html=1;fillColor=#f8cecc;strokeColor=#b85450;fontSize=18;fontStyle=1;verticalAlign=top;" vertex="1" parent="1">
          <mxGeometry x="50" y="80" width="1050" height="120" as="geometry"/>
        </mxCell>
        
        <!-- Network Security Components -->
        <mxCell id="vpc" value="🏛️ VPC &amp; Subnets&#xa;Private/Public Isolation" style="rounded=1;whiteSpace=wrap;html=1;fillColor=#ffcccc;strokeColor=#b85450;" vertex="1" parent="1">
          <mxGeometry x="80" y="120" width="140" height="60" as="geometry"/>
        </mxCell>
        
        <mxCell id="firewall" value="🔥 Firewalls &amp; WAF&#xa;DDoS Protection" style="rounded=1;whiteSpace=wrap;html=1;fillColor=#ffcccc;strokeColor=#b85450;" vertex="1" parent="1">
          <mxGeometry x="260" y="120" width="140" height="60" as="geometry"/>
        </mxCell>
        
        <mxCell id="vpn" value="🔒 VPN Gateway&#xa;Private Endpoints" style="rounded=1;whiteSpace=wrap;html=1;fillColor=#ffcccc;strokeColor=#b85450;" vertex="1" parent="1">
          <mxGeometry x="440" y="120" width="140" height="60" as="geometry"/>
        </mxCell>
        
        <mxCell id="cdn" value="🌐 CDN &amp; Edge&#xa;Global Distribution" style="rounded=1;whiteSpace=wrap;html=1;fillColor=#ffcccc;strokeColor=#b85450;" vertex="1" parent="1">
          <mxGeometry x="620" y="120" width="140" height="60" as="geometry"/>
        </mxCell>
        
        <mxCell id="monitoring" value="👁️ Network Monitoring&#xa;IDS/IPS Systems" style="rounded=1;whiteSpace=wrap;html=1;fillColor=#ffcccc;strokeColor=#b85450;" vertex="1" parent="1">
          <mxGeometry x="800" y="120" width="140" height="60" as="geometry"/>
        </mxCell>
        
        <mxCell id="zero_trust" value="🛡️ Zero Trust&#xa;Network Segmentation" style="rounded=1;whiteSpace=wrap;html=1;fillColor=#ffcccc;strokeColor=#b85450;" vertex="1" parent="1">
          <mxGeometry x="980" y="120" width="140" height="60" as="geometry"/>
        </mxCell>
        
        <!-- Layer 2: Identity & Access Management -->
        <mxCell id="layer2" value="Layer 2: Identity &amp; Access Management" style="rounded=1;whiteSpace=wrap;html=1;fillColor=#fff2cc;strokeColor=#d6b656;fontSize=18;fontStyle=1;verticalAlign=top;" vertex="1" parent="1">
          <mxGeometry x="50" y="220" width="1050" height="120" as="geometry"/>
        </mxCell>
        
        <!-- IAM Components -->
        <mxCell id="rbac" value="👤 RBAC&#xa;Role-Based Access" style="rounded=1;whiteSpace=wrap;html=1;fillColor=#ffffcc;strokeColor=#d6b656;" vertex="1" parent="1">
          <mxGeometry x="80" y="260" width="140" height="60" as="geometry"/>
        </mxCell>
        
        <mxCell id="jwt" value="🎫 JWT Tokens&#xa;Session Management" style="rounded=1;whiteSpace=wrap;html=1;fillColor=#ffffcc;strokeColor=#d6b656;" vertex="1" parent="1">
          <mxGeometry x="260" y="260" width="140" height="60" as="geometry"/>
        </mxCell>
        
        <mxCell id="mfa" value="🔐 MFA&#xa;Multi-Factor Auth" style="rounded=1;whiteSpace=wrap;html=1;fillColor=#ffffcc;strokeColor=#d6b656;" vertex="1" parent="1">
          <mxGeometry x="440" y="260" width="140" height="60" as="geometry"/>
        </mxCell>
        
        <mxCell id="sso" value="🎭 SSO Integration&#xa;SAML/OIDC" style="rounded=1;whiteSpace=wrap;html=1;fillColor=#ffffcc;strokeColor=#d6b656;" vertex="1" parent="1">
          <mxGeometry x="620" y="260" width="140" height="60" as="geometry"/>
        </mxCell>
        
        <mxCell id="api_keys" value="🗝️ API Key Mgmt&#xa;Rate Limiting" style="rounded=1;whiteSpace=wrap;html=1;fillColor=#ffffcc;strokeColor=#d6b656;" vertex="1" parent="1">
          <mxGeometry x="800" y="260" width="140" height="60" as="geometry"/>
        </mxCell>
        
        <mxCell id="privileged" value="👑 Privileged Access&#xa;Just-in-Time Access" style="rounded=1;whiteSpace=wrap;html=1;fillColor=#ffffcc;strokeColor=#d6b656;" vertex="1" parent="1">
          <mxGeometry x="980" y="260" width="140" height="60" as="geometry"/>
        </mxCell>
        
        <!-- Layer 3: Data Protection -->
        <mxCell id="layer3" value="Layer 3: Data Protection" style="rounded=1;whiteSpace=wrap;html=1;fillColor=#e1d5e7;strokeColor=#9673a6;fontSize=18;fontStyle=1;verticalAlign=top;" vertex="1" parent="1">
          <mxGeometry x="50" y="360" width="1050" height="120" as="geometry"/>
        </mxCell>
        
        <!-- Data Protection Components -->
        <mxCell id="encryption_rest" value="🔒 Encryption at Rest&#xa;AES-256 Storage" style="rounded=1;whiteSpace=wrap;html=1;fillColor=#f3e5f5;strokeColor=#9673a6;" vertex="1" parent="1">
          <mxGeometry x="80" y="400" width="140" height="60" as="geometry"/>
        </mxCell>
        
        <mxCell id="encryption_transit" value="🚛 Encryption in Transit&#xa;TLS 1.3 & mTLS" style="rounded=1;whiteSpace=wrap;html=1;fillColor=#f3e5f5;strokeColor=#9673a6;" vertex="1" parent="1">
          <mxGeometry x="260" y="400" width="140" height="60" as="geometry"/>
        </mxCell>
        
        <mxCell id="key_mgmt" value="🗝️ Key Management&#xa;HSM &amp; Rotation" style="rounded=1;whiteSpace=wrap;html=1;fillColor=#f3e5f5;strokeColor=#9673a6;" vertex="1" parent="1">
          <mxGeometry x="440" y="400" width="140" height="60" as="geometry"/>
        </mxCell>
        
        <mxCell id="data_classification" value="🏷️ Data Classification&#xa;PII Identification" style="rounded=1;whiteSpace=wrap;html=1;fillColor=#f3e5f5;strokeColor=#9673a6;" vertex="1" parent="1">
          <mxGeometry x="620" y="400" width="140" height="60" as="geometry"/>
        </mxCell>
        
        <mxCell id="data_masking" value="🎭 Data Masking&#xa;Tokenization" style="rounded=1;whiteSpace=wrap;html=1;fillColor=#f3e5f5;strokeColor=#9673a6;" vertex="1" parent="1">
          <mxGeometry x="800" y="400" width="140" height="60" as="geometry"/>
        </mxCell>
        
        <mxCell id="backup_recovery" value="💾 Backup &amp; Recovery&#xa;Point-in-Time" style="rounded=1;whiteSpace=wrap;html=1;fillColor=#f3e5f5;strokeColor=#9673a6;" vertex="1" parent="1">
          <mxGeometry x="980" y="400" width="140" height="60" as="geometry"/>
        </mxCell>
        
        <!-- Layer 4: Application Security -->
        <mxCell id="layer4" value="Layer 4: Application Security" style="rounded=1;whiteSpace=wrap;html=1;fillColor=#d5e8d4;strokeColor=#82b366;fontSize=18;fontStyle=1;verticalAlign=top;" vertex="1" parent="1">
          <mxGeometry x="50" y="500" width="1050" height="120" as="geometry"/>
        </mxCell>
        
        <!-- Application Security Components -->
        <mxCell id="input_validation" value="✅ Input Validation&#xa;SQL Injection Prevention" style="rounded=1;whiteSpace=wrap;html=1;fillColor=#d5f5d5;strokeColor=#82b366;" vertex="1" parent="1">
          <mxGeometry x="80" y="540" width="140" height="60" as="geometry"/>
        </mxCell>
        
        <mxCell id="container_security" value="📦 Container Security&#xa;Image Scanning" style="rounded=1;whiteSpace=wrap;html=1;fillColor=#d5f5d5;strokeColor=#82b366;" vertex="1" parent="1">
          <mxGeometry x="260" y="540" width="140" height="60" as="geometry"/>
        </mxCell>
        
        <mxCell id="secure_coding" value="💻 Secure Coding&#xa;OWASP Standards" style="rounded=1;whiteSpace=wrap;html=1;fillColor=#d5f5d5;strokeColor=#82b366;" vertex="1" parent="1">
          <mxGeometry x="440" y="540" width="140" height="60" as="geometry"/>
        </mxCell>
        
        <mxCell id="dependency_mgmt" value="📚 Dependency Mgmt&#xa;Vulnerability Scanning" style="rounded=1;whiteSpace=wrap;html=1;fillColor=#d5f5d5;strokeColor=#82b366;" vertex="1" parent="1">
          <mxGeometry x="620" y="540" width="140" height="60" as="geometry"/>
        </mxCell>
        
        <mxCell id="security_headers" value="📋 Security Headers&#xa;CSP, HSTS, XSS" style="rounded=1;whiteSpace=wrap;html=1;fillColor=#d5f5d5;strokeColor=#82b366;" vertex="1" parent="1">
          <mxGeometry x="800" y="540" width="140" height="60" as="geometry"/>
        </mxCell>
        
        <mxCell id="secrets_mgmt" value="🔐 Secrets Management&#xa;Environment Variables" style="rounded=1;whiteSpace=wrap;html=1;fillColor=#d5f5d5;strokeColor=#82b366;" vertex="1" parent="1">
          <mxGeometry x="980" y="540" width="140" height="60" as="geometry"/>
        </mxCell>
        
        <!-- Layer 5: Monitoring & Audit -->
        <mxCell id="layer5" value="Layer 5: Monitoring &amp; Audit" style="rounded=1;whiteSpace=wrap;html=1;fillColor=#dae8fc;strokeColor=#6c8ebf;fontSize=18;fontStyle=1;verticalAlign=top;" vertex="1" parent="1">
          <mxGeometry x="50" y="640" width="1050" height="120" as="geometry"/>
        </mxCell>
        
        <!-- Monitoring & Audit Components -->
        <mxCell id="audit_logging" value="📋 Audit Logging&#xa;Comprehensive Trails" style="rounded=1;whiteSpace=wrap;html=1;fillColor=#dae8fc;strokeColor=#6c8ebf;" vertex="1" parent="1">
          <mxGeometry x="80" y="680" width="140" height="60" as="geometry"/>
        </mxCell>
        
        <mxCell id="siem" value="🔍 SIEM Integration&#xa;Security Analytics" style="rounded=1;whiteSpace=wrap;html=1;fillColor=#dae8fc;strokeColor=#6c8ebf;" vertex="1" parent="1">
          <mxGeometry x="260" y="680" width="140" height="60" as="geometry"/>
        </mxCell>
        
        <mxCell id="anomaly_detection" value="🚨 Anomaly Detection&#xa;ML-Based Monitoring" style="rounded=1;whiteSpace=wrap;html=1;fillColor=#dae8fc;strokeColor=#6c8ebf;" vertex="1" parent="1">
          <mxGeometry x="440" y="680" width="140" height="60" as="geometry"/>
        </mxCell>
        
        <mxCell id="compliance" value="📊 Compliance&#xa;GDPR, SOC2, ISO27001" style="rounded=1;whiteSpace=wrap;html=1;fillColor=#dae8fc;strokeColor=#6c8ebf;" vertex="1" parent="1">
          <mxGeometry x="620" y="680" width="140" height="60" as="geometry"/>
        </mxCell>
        
        <mxCell id="incident_response" value="🆘 Incident Response&#xa;Automated Playbooks" style="rounded=1;whiteSpace=wrap;html=1;fillColor=#dae8fc;strokeColor=#6c8ebf;" vertex="1" parent="1">
          <mxGeometry x="800" y="680" width="140" height="60" as="geometry"/>
        </mxCell>
        
        <mxCell id="threat_hunting" value="🎯 Threat Hunting&#xa;Proactive Defense" style="rounded=1;whiteSpace=wrap;html=1;fillColor=#dae8fc;strokeColor=#6c8ebf;" vertex="1" parent="1">
          <mxGeometry x="980" y="680" width="140" height="60" as="geometry"/>
        </mxCell>
        
        <!-- Central Core: Data & Applications -->
        <mxCell id="core_data" value="🎯 PROTECTED ASSETS" style="ellipse;whiteSpace=wrap;html=1;aspect=fixed;fillColor=#fff2cc;strokeColor=#d6b656;fontSize=16;fontStyle=1;" vertex="1" parent="1">
          <mxGeometry x="520" y="790" width="120" height="120" as="geometry"/>
        </mxCell>
        
        <mxCell id="core_content" value="Scout Data&#xa;Customer PII&#xa;Transaction Records&#xa;Business Intelligence&#xa;ML Models" style="text;html=1;strokeColor=none;fillColor=none;align=center;verticalAlign=middle;whiteSpace=wrap;rounded=0;" vertex="1" parent="core_data">
          <mxGeometry x="10" y="30" width="100" height="60" as="geometry"/>
        </mxCell>
        
        <!-- Security Flow Indicators -->
        <mxCell id="flow1" value="" style="endArrow=classic;html=1;rounded=0;strokeWidth=3;strokeColor=#b85450;" edge="1" parent="1">
          <mxGeometry width="50" height="50" relative="1" as="geometry">
            <mxPoint x="575" y="200" as="sourcePoint"/>
            <mxPoint x="575" y="220" as="targetPoint"/>
          </mxGeometry>
        </mxCell>
        
        <mxCell id="flow2" value="" style="endArrow=classic;html=1;rounded=0;strokeWidth=3;strokeColor=#d6b656;" edge="1" parent="1">
          <mxGeometry width="50" height="50" relative="1" as="geometry">
            <mxPoint x="575" y="340" as="sourcePoint"/>
            <mxPoint x="575" y="360" as="targetPoint"/>
          </mxGeometry>
        </mxCell>
        
        <mxCell id="flow3" value="" style="endArrow=classic;html=1;rounded=0;strokeWidth=3;strokeColor=#9673a6;" edge="1" parent="1">
          <mxGeometry width="50" height="50" relative="1" as="geometry">
            <mxPoint x="575" y="480" as="sourcePoint"/>
            <mxPoint x="575" y="500" as="targetPoint"/>
          </mxGeometry>
        </mxCell>
        
        <mxCell id="flow4" value="" style="endArrow=classic;html=1;rounded=0;strokeWidth=3;strokeColor=#82b366;" edge="1" parent="1">
          <mxGeometry width="50" height="50" relative="1" as="geometry">
            <mxPoint x="575" y="620" as="sourcePoint"/>
            <mxPoint x="575" y="640" as="targetPoint"/>
          </mxGeometry>
        </mxCell>
        
        <mxCell id="flow5" value="" style="endArrow=classic;html=1;rounded=0;strokeWidth=3;strokeColor=#6c8ebf;" edge="1" parent="1">
          <mxGeometry width="50" height="50" relative="1" as="geometry">
            <mxPoint x="575" y="760" as="sourcePoint"/>
            <mxPoint x="575" y="790" as="targetPoint"/>
          </mxGeometry>
        </mxCell>
        
      </root>
    </mxGraphModel>
  </diagram>
</mxfile>